<svg id="Group_3955" data-name="Group 3955" xmlns="http://www.w3.org/2000/svg" xmlns:xlink="http://www.w3.org/1999/xlink" width="360" height="239" viewBox="0 0 360 239">
  <defs>
    <filter id="Rectangle_1460" x="-6" y="-4" width="372" height="251" filterUnits="userSpaceOnUse">
      <feOffset dy="2" input="SourceAlpha"/>
      <feGaussianBlur stdDeviation="2" result="blur"/>
      <feFlood flood-opacity="0.161"/>
      <feComposite operator="in" in2="blur"/>
      <feComposite in="SourceGraphic"/>
    </filter>
    <clipPath id="clip-path">
      <g transform="matrix(1, 0, 0, 1, 0, 0)" filter="url(#Rectangle_1460)">
        <rect id="Rectangle_1460-2" data-name="Rectangle 1460" width="360" height="239" fill="#004e8c"/>
      </g>
    </clipPath>
  </defs>
  <path id="Path_8291" data-name="Path 8291" d="M0,0H360V239H0Z" fill="none"/>
  <g id="Mask_Group_86" data-name="Mask Group 86" clip-path="url(#clip-path)">
    <g id="Group_3741" data-name="Group 3741" transform="translate(-1.477 4.53)">
      <g id="Group_3739" data-name="Group 3739" transform="translate(71.977 94.879) rotate(-3)">
        <g id="Group_2667" data-name="Group 2667" transform="translate(12.273 34.515)">
          <path id="Path_442" data-name="Path 442" d="M1.724,0l46,10.159-1.8,7.577L0,7.591Z" fill="#efb728"/>
          <g id="Group_2666" data-name="Group 2666" transform="translate(2.751 0.308)">
            <g id="Group_2605" data-name="Group 2605" transform="translate(43.048 9.506)">
              <line id="Line_13" data-name="Line 13" x1="0.359" y2="1.584" transform="translate(0.176 0.044)" fill="#1bb3c3"/>
              <path id="Path_443" data-name="Path 443" d="M0,1.592l.352.073L.711.081.359,0Z" fill="#fff"/>
            </g>
            <g id="Group_2606" data-name="Group 2606" transform="translate(42.512 9.352)">
              <line id="Line_14" data-name="Line 14" x1="0.176" y2="0.792" transform="translate(0.176 0.037)" fill="#1bb3c3"/>
              <path id="Path_444" data-name="Path 444" d="M0,.792.352.866.528.073.176,0Z" fill="#fff"/>
            </g>
            <g id="Group_2607" data-name="Group 2607" transform="translate(41.793 9.19)">
              <line id="Line_15" data-name="Line 15" x1="0.183" y2="0.792" transform="translate(0.176 0.044)" fill="#1bb3c3"/>
              <path id="Path_445" data-name="Path 445" d="M0,.792.352.873.535.081.183,0Z" fill="#fff"/>
            </g>
            <g id="Group_2608" data-name="Group 2608" transform="translate(41.075 9.036)">
              <line id="Line_16" data-name="Line 16" x1="0.183" y2="0.792" transform="translate(0.176 0.037)" fill="#1bb3c3"/>
              <path id="Path_446" data-name="Path 446" d="M0,.792.352.866.535.073.183,0Z" fill="#fff"/>
            </g>
            <g id="Group_2609" data-name="Group 2609" transform="translate(40.363 8.875)">
              <line id="Line_17" data-name="Line 17" x1="0.176" y2="0.792" transform="translate(0.176 0.037)" fill="#1bb3c3"/>
              <path id="Path_447" data-name="Path 447" d="M0,.792.352.873.528.081.176,0Z" fill="#fff"/>
            </g>
            <g id="Group_2610" data-name="Group 2610" transform="translate(39.644 8.721)">
              <line id="Line_18" data-name="Line 18" x1="0.183" y2="0.792" transform="translate(0.176 0.037)" fill="#1bb3c3"/>
              <path id="Path_448" data-name="Path 448" d="M0,.792.352.865.528.073.183,0Z" fill="#fff"/>
            </g>
            <g id="Group_2611" data-name="Group 2611" transform="translate(38.75 8.56)">
              <line id="Line_19" data-name="Line 19" x1="0.359" y2="1.584" transform="translate(0.176 0.037)" fill="#1bb3c3"/>
              <path id="Path_449" data-name="Path 449" d="M0,1.584l.352.081L.712.081.359,0Z" fill="#fff"/>
            </g>
            <g id="Group_2612" data-name="Group 2612" transform="translate(38.214 8.398)">
              <line id="Line_20" data-name="Line 20" x1="0.176" y2="0.792" transform="translate(0.176 0.044)" fill="#1bb3c3"/>
              <path id="Path_450" data-name="Path 450" d="M0,.792.345.873.528.081.176,0Z" fill="#fff"/>
            </g>
            <g id="Group_2613" data-name="Group 2613" transform="translate(37.495 8.244)">
              <line id="Line_21" data-name="Line 21" x1="0.176" y2="0.792" transform="translate(0.176 0.037)" fill="#1bb3c3"/>
              <path id="Path_451" data-name="Path 451" d="M0,.792.352.866.528.073.183,0Z" fill="#fff"/>
            </g>
            <g id="Group_2614" data-name="Group 2614" transform="translate(36.777 8.083)">
              <line id="Line_22" data-name="Line 22" x1="0.183" y2="0.799" transform="translate(0.176 0.037)" fill="#1bb3c3"/>
              <path id="Path_452" data-name="Path 452" d="M0,.792.352.873.535.081.183,0Z" fill="#fff"/>
            </g>
            <g id="Group_2615" data-name="Group 2615" transform="translate(36.065 7.929)">
              <line id="Line_23" data-name="Line 23" x1="0.183" y2="0.792" transform="translate(0.169 0.037)" fill="#1bb3c3"/>
              <path id="Path_453" data-name="Path 453" d="M0,.792.345.866.528.073.176,0Z" fill="#fff"/>
            </g>
            <g id="Group_2616" data-name="Group 2616" transform="translate(35.346 7.768)">
              <line id="Line_24" data-name="Line 24" x1="0.176" y2="0.792" transform="translate(0.176 0.037)" fill="#1bb3c3"/>
              <path id="Path_454" data-name="Path 454" d="M0,.792.352.873.528.081.176,0Z" fill="#fff"/>
            </g>
            <g id="Group_2617" data-name="Group 2617" transform="translate(34.451 7.606)">
              <line id="Line_25" data-name="Line 25" x1="0.367" y2="1.584" transform="translate(0.169 0.044)" fill="#1bb3c3"/>
              <path id="Path_455" data-name="Path 455" d="M0,1.592l.345.073L.711.081.359,0Z" fill="#fff"/>
            </g>
            <g id="Group_2618" data-name="Group 2618" transform="translate(33.909 7.452)">
              <line id="Line_26" data-name="Line 26" x1="0.183" y2="0.792" transform="translate(0.176 0.037)" fill="#1bb3c3"/>
              <path id="Path_456" data-name="Path 456" d="M0,.792.352.873l.183-.8L.183,0Z" fill="#fff"/>
            </g>
            <g id="Group_2619" data-name="Group 2619" transform="translate(33.197 7.291)">
              <line id="Line_27" data-name="Line 27" x1="0.176" y2="0.792" transform="translate(0.176 0.044)" fill="#1bb3c3"/>
              <path id="Path_457" data-name="Path 457" d="M0,.792.352.873.528.081.176,0Z" fill="#fff"/>
            </g>
            <g id="Group_2620" data-name="Group 2620" transform="translate(32.478 7.137)">
              <line id="Line_28" data-name="Line 28" x1="0.183" y2="0.792" transform="translate(0.176 0.037)" fill="#1bb3c3"/>
              <path id="Path_458" data-name="Path 458" d="M0,.792.352.865.536.073.183,0Z" fill="#fff"/>
            </g>
            <g id="Group_2621" data-name="Group 2621" transform="translate(31.76 6.975)">
              <line id="Line_29" data-name="Line 29" x1="0.183" y2="0.792" transform="translate(0.176 0.037)" fill="#1bb3c3"/>
              <path id="Path_459" data-name="Path 459" d="M0,.792.352.873.536.081.183,0Z" fill="#fff"/>
            </g>
            <g id="Group_2622" data-name="Group 2622" transform="translate(31.048 6.821)">
              <line id="Line_30" data-name="Line 30" x1="0.176" y2="0.792" transform="translate(0.176 0.037)" fill="#1bb3c3"/>
              <path id="Path_460" data-name="Path 460" d="M0,.792.345.865.528.073.176,0Z" fill="#fff"/>
            </g>
            <g id="Group_2623" data-name="Group 2623" transform="translate(30.146 6.66)">
              <line id="Line_31" data-name="Line 31" x1="0.367" y2="1.584" transform="translate(0.176 0.037)" fill="#1bb3c3"/>
              <path id="Path_461" data-name="Path 461" d="M0,1.584l.352.081L.712.081.367,0Z" fill="#fff"/>
            </g>
            <g id="Group_2624" data-name="Group 2624" transform="translate(29.61 6.499)">
              <line id="Line_32" data-name="Line 32" x1="0.183" y2="0.792" transform="translate(0.176 0.044)" fill="#1bb3c3"/>
              <path id="Path_462" data-name="Path 462" d="M0,.792.352.873.535.081.183,0Z" fill="#fff"/>
            </g>
            <g id="Group_2625" data-name="Group 2625" transform="translate(28.899 6.345)">
              <line id="Line_33" data-name="Line 33" x1="0.176" y2="0.792" transform="translate(0.176 0.037)" fill="#1bb3c3"/>
              <path id="Path_463" data-name="Path 463" d="M0,.792.345.866.528.073.176,0Z" fill="#fff"/>
            </g>
            <g id="Group_2626" data-name="Group 2626" transform="translate(28.18 6.183)">
              <line id="Line_34" data-name="Line 34" x1="0.176" y2="0.799" transform="translate(0.176 0.037)" fill="#1bb3c3"/>
              <path id="Path_464" data-name="Path 464" d="M0,.792.352.873.528.081.183,0Z" fill="#fff"/>
            </g>
            <g id="Group_2627" data-name="Group 2627" transform="translate(27.461 6.029)">
              <line id="Line_35" data-name="Line 35" x1="0.183" y2="0.792" transform="translate(0.176 0.037)" fill="#1bb3c3"/>
              <path id="Path_465" data-name="Path 465" d="M0,.792.352.866.535.073.183,0Z" fill="#fff"/>
            </g>
            <g id="Group_2628" data-name="Group 2628" transform="translate(26.743 5.868)">
              <line id="Line_36" data-name="Line 36" x1="0.183" y2="0.792" transform="translate(0.176 0.037)" fill="#1bb3c3"/>
              <path id="Path_466" data-name="Path 466" d="M0,.792.352.873.536.081.183,0Z" fill="#fff"/>
            </g>
            <g id="Group_2629" data-name="Group 2629" transform="translate(25.848 5.706)">
              <line id="Line_37" data-name="Line 37" x1="0.359" y2="1.584" transform="translate(0.176 0.044)" fill="#1bb3c3"/>
              <path id="Path_467" data-name="Path 467" d="M0,1.592l.352.073L.711.081.359,0Z" fill="#fff"/>
            </g>
            <g id="Group_2630" data-name="Group 2630" transform="translate(25.312 5.552)">
              <line id="Line_38" data-name="Line 38" x1="0.183" y2="0.792" transform="translate(0.176 0.037)" fill="#1bb3c3"/>
              <path id="Path_468" data-name="Path 468" d="M0,.792.352.873l.183-.8L.183,0Z" fill="#fff"/>
            </g>
            <g id="Group_2631" data-name="Group 2631" transform="translate(24.593 5.391)">
              <line id="Line_39" data-name="Line 39" x1="0.183" y2="0.792" transform="translate(0.176 0.044)" fill="#1bb3c3"/>
              <path id="Path_469" data-name="Path 469" d="M0,.792.352.873.535.081.183,0Z" fill="#fff"/>
            </g>
            <g id="Group_2632" data-name="Group 2632" transform="translate(23.882 5.237)">
              <line id="Line_40" data-name="Line 40" x1="0.176" y2="0.792" transform="translate(0.176 0.037)" fill="#1bb3c3"/>
              <path id="Path_470" data-name="Path 470" d="M0,.792.352.866.528.073.176,0Z" fill="#fff"/>
            </g>
            <g id="Group_2633" data-name="Group 2633" transform="translate(23.163 5.076)">
              <line id="Line_41" data-name="Line 41" x1="0.183" y2="0.792" transform="translate(0.176 0.037)" fill="#1bb3c3"/>
              <path id="Path_471" data-name="Path 471" d="M0,.792.352.873.536.081.183,0Z" fill="#fff"/>
            </g>
            <g id="Group_2634" data-name="Group 2634" transform="translate(22.444 4.922)">
              <line id="Line_42" data-name="Line 42" x1="0.183" y2="0.792" transform="translate(0.176 0.037)" fill="#1bb3c3"/>
              <path id="Path_472" data-name="Path 472" d="M0,.792.352.866.535.073.183,0Z" fill="#fff"/>
            </g>
            <g id="Group_2635" data-name="Group 2635" transform="translate(21.55 4.76)">
              <line id="Line_43" data-name="Line 43" x1="0.359" y2="1.584" transform="translate(0.176 0.037)" fill="#1bb3c3"/>
              <path id="Path_473" data-name="Path 473" d="M0,1.584l.352.081L.712.081.359,0Z" fill="#fff"/>
            </g>
            <g id="Group_2636" data-name="Group 2636" transform="translate(21.014 4.599)">
              <line id="Line_44" data-name="Line 44" x1="0.183" y2="0.792" transform="translate(0.176 0.044)" fill="#1bb3c3"/>
              <path id="Path_474" data-name="Path 474" d="M0,.792.352.873.528.081.183,0Z" fill="#fff"/>
            </g>
            <g id="Group_2637" data-name="Group 2637" transform="translate(20.295 4.445)">
              <line id="Line_45" data-name="Line 45" x1="0.183" y2="0.792" transform="translate(0.176 0.037)" fill="#1bb3c3"/>
              <path id="Path_475" data-name="Path 475" d="M0,.792.352.866.535.073.183,0Z" fill="#fff"/>
            </g>
            <g id="Group_2638" data-name="Group 2638" transform="translate(19.584 4.284)">
              <line id="Line_46" data-name="Line 46" x1="0.176" y2="0.799" transform="translate(0.176 0.037)" fill="#1bb3c3"/>
              <path id="Path_476" data-name="Path 476" d="M0,.792.345.873.528.081.176,0Z" fill="#fff"/>
            </g>
            <g id="Group_2639" data-name="Group 2639" transform="translate(18.865 4.129)">
              <line id="Line_47" data-name="Line 47" x1="0.176" y2="0.792" transform="translate(0.176 0.037)" fill="#1bb3c3"/>
              <path id="Path_477" data-name="Path 477" d="M0,.792.352.865.528.073.183,0Z" fill="#fff"/>
            </g>
            <g id="Group_2640" data-name="Group 2640" transform="translate(18.146 3.968)">
              <line id="Line_48" data-name="Line 48" x1="0.183" y2="0.792" transform="translate(0.176 0.037)" fill="#1bb3c3"/>
              <path id="Path_478" data-name="Path 478" d="M0,.792.352.873.535.081.183,0Z" fill="#fff"/>
            </g>
            <g id="Group_2641" data-name="Group 2641" transform="translate(17.251 3.807)">
              <line id="Line_49" data-name="Line 49" x1="0.359" y2="1.584" transform="translate(0.176 0.044)" fill="#1bb3c3"/>
              <path id="Path_479" data-name="Path 479" d="M0,1.592l.352.073L.711.081.359,0Z" fill="#fff"/>
            </g>
            <g id="Group_2642" data-name="Group 2642" transform="translate(16.716 3.653)">
              <line id="Line_50" data-name="Line 50" x1="0.176" y2="0.792" transform="translate(0.176 0.037)" fill="#1bb3c3"/>
              <path id="Path_480" data-name="Path 480" d="M0,.792.352.873l.176-.8L.176,0Z" fill="#fff"/>
            </g>
            <g id="Group_2643" data-name="Group 2643" transform="translate(15.997 3.491)">
              <line id="Line_51" data-name="Line 51" x1="0.183" y2="0.792" transform="translate(0.176 0.044)" fill="#1bb3c3"/>
              <path id="Path_481" data-name="Path 481" d="M0,.792.352.873.535.081.183,0Z" fill="#fff"/>
            </g>
            <g id="Group_2644" data-name="Group 2644" transform="translate(15.278 3.337)">
              <line id="Line_52" data-name="Line 52" x1="0.183" y2="0.792" transform="translate(0.176 0.037)" fill="#1bb3c3"/>
              <path id="Path_482" data-name="Path 482" d="M0,.792.352.866.535.073.183,0Z" fill="#fff"/>
            </g>
            <g id="Group_2645" data-name="Group 2645" transform="translate(14.567 3.176)">
              <line id="Line_53" data-name="Line 53" x1="0.176" y2="0.792" transform="translate(0.176 0.037)" fill="#1bb3c3"/>
              <path id="Path_483" data-name="Path 483" d="M0,.792.352.873.528.081.176,0Z" fill="#fff"/>
            </g>
            <g id="Group_2646" data-name="Group 2646" transform="translate(13.848 3.022)">
              <line id="Line_54" data-name="Line 54" x1="0.183" y2="0.792" transform="translate(0.176 0.037)" fill="#1bb3c3"/>
              <path id="Path_484" data-name="Path 484" d="M0,.792.352.866.536.073.183,0Z" fill="#fff"/>
            </g>
            <g id="Group_2647" data-name="Group 2647" transform="translate(12.953 2.861)">
              <line id="Line_55" data-name="Line 55" x1="0.359" y2="1.584" transform="translate(0.176 0.037)" fill="#1bb3c3"/>
              <path id="Path_485" data-name="Path 485" d="M0,1.584l.352.081L.712.081.359,0Z" fill="#fff"/>
            </g>
            <g id="Group_2648" data-name="Group 2648" transform="translate(12.418 2.699)">
              <line id="Line_56" data-name="Line 56" x1="0.176" y2="0.792" transform="translate(0.176 0.044)" fill="#1bb3c3"/>
              <path id="Path_486" data-name="Path 486" d="M0,.792.345.873.528.081.176,0Z" fill="#fff"/>
            </g>
            <g id="Group_2649" data-name="Group 2649" transform="translate(11.699 2.545)">
              <line id="Line_57" data-name="Line 57" x1="0.183" y2="0.792" transform="translate(0.176 0.037)" fill="#1bb3c3"/>
              <path id="Path_487" data-name="Path 487" d="M0,.792.352.866.528.073.183,0Z" fill="#fff"/>
            </g>
            <g id="Group_2650" data-name="Group 2650" transform="translate(10.98 2.384)">
              <line id="Line_58" data-name="Line 58" x1="0.183" y2="0.799" transform="translate(0.176 0.037)" fill="#1bb3c3"/>
              <path id="Path_488" data-name="Path 488" d="M0,.792.352.873.535.081.183,0Z" fill="#fff"/>
            </g>
            <g id="Group_2651" data-name="Group 2651" transform="translate(10.261 2.23)">
              <line id="Line_59" data-name="Line 59" x1="0.176" y2="0.792" transform="translate(0.183 0.037)" fill="#1bb3c3"/>
              <path id="Path_489" data-name="Path 489" d="M0,.792.352.866.535.073.183,0Z" fill="#fff"/>
            </g>
            <g id="Group_2652" data-name="Group 2652" transform="translate(9.55 2.068)">
              <line id="Line_60" data-name="Line 60" x1="0.176" y2="0.792" transform="translate(0.176 0.037)" fill="#1bb3c3"/>
              <path id="Path_490" data-name="Path 490" d="M0,.792.352.873.528.081.183,0Z" fill="#fff"/>
            </g>
            <g id="Group_2653" data-name="Group 2653" transform="translate(8.655 1.907)">
              <line id="Line_61" data-name="Line 61" x1="0.367" y2="1.584" transform="translate(0.169 0.044)" fill="#1bb3c3"/>
              <path id="Path_491" data-name="Path 491" d="M0,1.592l.345.073L.712.081.359,0Z" fill="#fff"/>
            </g>
            <g id="Group_2654" data-name="Group 2654" transform="translate(8.061 1.738)">
              <line id="Line_62" data-name="Line 62" x1="0.183" y2="0.792" transform="translate(0.176 0.044)" fill="#1bb3c3"/>
              <path id="Path_492" data-name="Path 492" d="M0,.792.352.873.535.081.183,0Z" fill="#fff"/>
            </g>
            <g id="Group_2655" data-name="Group 2655" transform="translate(7.342 1.584)">
              <line id="Line_63" data-name="Line 63" x1="0.183" y2="0.792" transform="translate(0.176 0.037)" fill="#1bb3c3"/>
              <path id="Path_493" data-name="Path 493" d="M0,.792.352.866.535.073.183,0Z" fill="#fff"/>
            </g>
            <g id="Group_2656" data-name="Group 2656" transform="translate(6.631 1.423)">
              <line id="Line_64" data-name="Line 64" x1="0.176" y2="0.792" transform="translate(0.176 0.037)" fill="#1bb3c3"/>
              <path id="Path_494" data-name="Path 494" d="M0,.792.352.873.528.081.176,0Z" fill="#fff"/>
            </g>
            <g id="Group_2657" data-name="Group 2657" transform="translate(5.912 1.262)">
              <line id="Line_65" data-name="Line 65" x1="0.183" y2="0.792" transform="translate(0.176 0.044)" fill="#1bb3c3"/>
              <path id="Path_495" data-name="Path 495" d="M0,.8.352.873.528.081.183,0Z" fill="#fff"/>
            </g>
            <g id="Group_2658" data-name="Group 2658" transform="translate(5.193 1.108)">
              <line id="Line_66" data-name="Line 66" x1="0.183" y2="0.792" transform="translate(0.176 0.037)" fill="#1bb3c3"/>
              <path id="Path_496" data-name="Path 496" d="M0,.792.352.873l.183-.8L.183,0Z" fill="#fff"/>
            </g>
            <g id="Group_2659" data-name="Group 2659" transform="translate(4.298 0.946)">
              <line id="Line_67" data-name="Line 67" x1="0.359" y2="1.584" transform="translate(0.176 0.044)" fill="#1bb3c3"/>
              <path id="Path_497" data-name="Path 497" d="M0,1.584l.352.081L.711.081.359,0Z" fill="#fff"/>
            </g>
            <g id="Group_2660" data-name="Group 2660" transform="translate(3.763 0.792)">
              <line id="Line_68" data-name="Line 68" x1="0.183" y2="0.792" transform="translate(0.176 0.037)" fill="#1bb3c3"/>
              <path id="Path_498" data-name="Path 498" d="M0,.792.352.866.528.073.183,0Z" fill="#fff"/>
            </g>
            <g id="Group_2661" data-name="Group 2661" transform="translate(3.044 0.631)">
              <line id="Line_69" data-name="Line 69" x1="0.183" y2="0.799" transform="translate(0.176 0.037)" fill="#1bb3c3"/>
              <path id="Path_499" data-name="Path 499" d="M0,.792.352.873.535.081.183,0Z" fill="#fff"/>
            </g>
            <g id="Group_2662" data-name="Group 2662" transform="translate(2.332 0.477)">
              <line id="Line_70" data-name="Line 70" x1="0.176" y2="0.792" transform="translate(0.176 0.037)" fill="#1bb3c3"/>
              <path id="Path_500" data-name="Path 500" d="M0,.792.345.865.528.073.176,0Z" fill="#fff"/>
            </g>
            <g id="Group_2663" data-name="Group 2663" transform="translate(1.614 0.315)">
              <line id="Line_71" data-name="Line 71" x1="0.176" y2="0.792" transform="translate(0.176 0.037)" fill="#1bb3c3"/>
              <path id="Path_501" data-name="Path 501" d="M0,.792.352.873.528.081.176,0Z" fill="#fff"/>
            </g>
            <g id="Group_2664" data-name="Group 2664" transform="translate(0.895 0.154)">
              <line id="Line_72" data-name="Line 72" x1="0.183" y2="0.792" transform="translate(0.176 0.044)" fill="#1bb3c3"/>
              <path id="Path_502" data-name="Path 502" d="M0,.792.352.873.535.081.183,0Z" fill="#fff"/>
            </g>
            <g id="Group_2665" data-name="Group 2665">
              <line id="Line_73" data-name="Line 73" x1="0.359" y2="1.584" transform="translate(0.176 0.037)" fill="#1bb3c3"/>
              <path id="Path_503" data-name="Path 503" d="M0,1.584l.352.073L.712.073.359,0Z" fill="#fff"/>
            </g>
          </g>
        </g>
        <g id="Group_2673" data-name="Group 2673" transform="translate(187.666 90.938)">
          <g id="Group_2668" data-name="Group 2668" transform="translate(3.725 3.542)">
            <line id="Line_74" data-name="Line 74" x2="4.951" y2="4.68" transform="translate(0.132 0.139)" fill="#c0d5d7"/>
            <path id="Path_504" data-name="Path 504" d="M4.951,4.951l.264-.271L.264,0,0,.271Z" fill="#fff"/>
          </g>
          <g id="Group_2669" data-name="Group 2669" transform="translate(2.746 2.454)">
            <path id="Path_505" data-name="Path 505" d="M5.015,4.861a1.06,1.06,0,0,0-.264,1.027,3.251,3.251,0,0,1-3.77-.477A3.116,3.116,0,0,1,.885.966,3.231,3.231,0,0,1,5.4.878,3.109,3.109,0,0,1,6.042,4.56,1.113,1.113,0,0,0,5.015,4.861Z" transform="translate(0.944 0.943)" fill="none"/>
            <path id="Path_506" data-name="Path 506" d="M1.273,7.028a4.041,4.041,0,0,1-.117-5.772,4.187,4.187,0,0,1,5.861-.117A4.027,4.027,0,0,1,7.741,6.1,1.059,1.059,0,0,0,7.5,5.767,1.094,1.094,0,0,0,6.986,5.5a3.108,3.108,0,0,0-.638-3.682A3.238,3.238,0,0,0,1.83,1.9a3.109,3.109,0,0,0,.1,4.445,3.249,3.249,0,0,0,3.77.477,1.065,1.065,0,0,0,.293.491,1.054,1.054,0,0,0,.352.22A4.168,4.168,0,0,1,1.273,7.028Z" fill="#a1b53b"/>
          </g>
          <path id="Path_507" data-name="Path 507" d="M.583.593a.722.722,0,0,1,1-.022.691.691,0,0,1,.022.99.722.722,0,0,1-1,.022A.691.691,0,0,1,.583.593M.3.328A1.063,1.063,0,0,0,.334,1.847a1.1,1.1,0,0,0,1.541-.029A1.063,1.063,0,0,0,1.845.3,1.1,1.1,0,0,0,.3.328Z" transform="translate(8.401 7.93)" fill="#c0d5d7"/>
          <path id="Path_508" data-name="Path 508" d="M.176,8.89,8.684.169,8.5,0,0,8.721Z" transform="translate(8.456 7.679)" fill="#fff"/>
          <path id="Path_509" data-name="Path 509" d="M1.67,2.315A.529.529,0,0,0,2.411,2.3h0A.512.512,0,0,0,2.4,1.575L.885.144A.53.53,0,0,0,.144.159h0A.511.511,0,0,0,.159.885Z" transform="translate(11.518 10.894)" fill="#c0d5d7"/>
          <g id="Group_2670" data-name="Group 2670" transform="translate(10.217 5.713)">
            <path id="Path_510" data-name="Path 510" d="M0,.015.081,0,18.674,11.787c.03.132.044.22.044.22s-1.548.352-1.577.33L.337,1.577Z" transform="translate(0 0.315)" fill="#9cd1dd"/>
            <path id="Path_511" data-name="Path 511" d="M1.5,0,18.3,10.76s.206.91.293,1.342L0,.315Z" transform="translate(0.081)" fill="#ced9c9"/>
          </g>
          <g id="Group_2671" data-name="Group 2671" transform="translate(6.248 9.835)">
            <path id="Path_512" data-name="Path 512" d="M1.291.213,12.9,16.305l-.271,1.562-.1-.015L0,0Z" transform="translate(0.572 0.051)" fill="#ced9c9"/>
            <path id="Path_513" data-name="Path 513" d="M0,1.57.271,0l.3.051L13.1,17.9l-1.489-.25Z" fill="#9cd1dd"/>
          </g>
          <g id="Group_2672" data-name="Group 2672">
            <path id="Path_514" data-name="Path 514" d="M1.188.234l3.4,3.22A.838.838,0,0,1,4.643,4.62L0,.234A.871.871,0,0,1,1.188.234Z" transform="translate(0.271)" fill="#ced9c9"/>
            <path id="Path_515" data-name="Path 515" d="M.241.029A.075.075,0,0,1,.278,0L4.921,4.386a.133.133,0,0,1-.029.037.866.866,0,0,1-1.218.022l-3.4-3.22A.827.827,0,0,1,.241.029Z" transform="translate(0 0.226)" fill="#9cd1dd"/>
          </g>
        </g>
        <g id="Group_2704" data-name="Group 2704" transform="matrix(0.087, 0.996, -0.996, 0.087, 258.501, 0)">
          <g id="Group_2702" data-name="Group 2702" transform="translate(21.31 4.437)">
            <path id="Path_604" data-name="Path 604" d="M1.276.286,0,.924A11.72,11.72,0,0,1,1.452,3.1a11.505,11.505,0,0,1,.954,2.53L3.7,4.988A2.609,2.609,0,0,0,4.87,1.445,2.689,2.689,0,0,0,1.276.286Z" transform="translate(8.946)" fill="#fff"/>
            <path id="Path_605" data-name="Path 605" d="M8.946,0,1.464,3.741A2.616,2.616,0,0,0,.291,7.283a2.7,2.7,0,0,0,3.6,1.159l7.459-3.726a11.554,11.554,0,0,0-.954-2.53A11.564,11.564,0,0,0,8.946,0Z" transform="translate(0 0.924)" fill="#dfdfdf"/>
          </g>
          <path id="Path_606" data-name="Path 606" d="M29.925,8.523a15.46,15.46,0,0,1-6.946,20.933A15.93,15.93,0,0,1,1.716,22.62,15.458,15.458,0,0,1,8.662,1.687,15.944,15.944,0,0,1,29.925,8.523Z" fill="#fff"/>
          <g id="Group_2703" data-name="Group 2703" transform="translate(4.111 4.04)">
            <path id="Path_607" data-name="Path 607" d="M3.583,0A11.687,11.687,0,0,0,1.565,2.545a11.436,11.436,0,0,0,4.3,15.748A11.8,11.8,0,0,0,11.1,19.818a15.62,15.62,0,0,1-1.65-.807A14.4,14.4,0,0,1,3.583,0Z" transform="translate(0 3.229)" fill="#492616"/>
            <path id="Path_608" data-name="Path 608" d="M19.8,17.29A11.435,11.435,0,0,0,15.5,1.542,11.861,11.861,0,0,0,1.522,3.229,14.418,14.418,0,0,0,7.4,22.248a15.489,15.489,0,0,0,1.651.807A11.758,11.758,0,0,0,19.8,17.29Z" transform="translate(2.061)" fill="#643218"/>
          </g>
        </g>
        <g id="Group_2757" data-name="Group 2757" transform="translate(212.702 77.662) rotate(8)">
          <path id="Path_674" data-name="Path 674" d="M0,53.2,20.6,0,75.218,20.493V75.673H50.64l1.173-3.029Z" transform="translate(6.667)" fill="#f8b665"/>
          <g id="Group_2711" data-name="Group 2711" transform="translate(0 6.741)">
            <path id="Path_675" data-name="Path 675" d="M0,21.073,19.907,68.932H80.976L52.3,0Z" fill="#f7fbff"/>
          </g>
          <g id="Group_2712" data-name="Group 2712" transform="translate(31.239 56.544)">
            <path id="Path_676" data-name="Path 676" d="M21.865,17.647,14.633,0,0,5.816,5.457,19.129H18.139Z" transform="translate(24.461)" fill="#e1e1e1"/>
            <path id="Path_677" data-name="Path 677" d="M8.985,1.54,8.339,0,0,3.359H4.467Z" transform="translate(13.848 15.77)" fill="#e1e1e1"/>
            <path id="Path_678" data-name="Path 678" d="M14.911,1.54,14.273,0,0,5.75H4.467Z" transform="translate(6.924 13.379)" fill="#e1e1e1"/>
            <path id="Path_679" data-name="Path 679" d="M4.467,8.142l16.371-6.6L20.2,0,0,8.142Z" transform="translate(0 10.988)" fill="#e1e1e1"/>
          </g>
          <g id="Group_2755" data-name="Group 2755" transform="translate(4.342 10.731)">
            <g id="Group_2722" data-name="Group 2722" transform="translate(0 10.041)">
              <g id="Group_2721" data-name="Group 2721">
                <g id="Group_2713" data-name="Group 2713" transform="translate(6.953 16.731)">
                  <path id="Path_680" data-name="Path 680" d="M22.473,0,0,9.058.646,10.6,23.119,1.548Z" fill="#e1e1e1"/>
                </g>
                <g id="Group_2714" data-name="Group 2714" transform="translate(5.963 14.347)">
                  <path id="Path_681" data-name="Path 681" d="M22.474,0,0,9.058.638,10.6,23.112,1.54Z" fill="#e1e1e1"/>
                </g>
                <g id="Group_2715" data-name="Group 2715" transform="translate(4.966 11.956)">
                  <path id="Path_682" data-name="Path 682" d="M22.474,0,0,9.058.646,10.6,23.119,1.54Z" fill="#e1e1e1"/>
                </g>
                <g id="Group_2716" data-name="Group 2716" transform="translate(3.975 9.565)">
                  <path id="Path_683" data-name="Path 683" d="M22.474,0,0,9.059.638,10.6,23.112,1.541Z" fill="#e1e1e1"/>
                </g>
                <g id="Group_2717" data-name="Group 2717" transform="translate(2.978 7.173)">
                  <path id="Path_684" data-name="Path 684" d="M22.474,0,0,9.058.645,10.6,23.119,1.54Z" fill="#e1e1e1"/>
                </g>
                <g id="Group_2718" data-name="Group 2718" transform="translate(1.988 4.782)">
                  <path id="Path_685" data-name="Path 685" d="M22.474,0,0,9.058.638,10.6,23.112,1.54Z" fill="#e1e1e1"/>
                </g>
                <g id="Group_2719" data-name="Group 2719" transform="translate(0.99 2.391)">
                  <path id="Path_686" data-name="Path 686" d="M22.474,0,0,9.058.646,10.6,23.119,1.54Z" fill="#e1e1e1"/>
                </g>
                <g id="Group_2720" data-name="Group 2720">
                  <path id="Path_687" data-name="Path 687" d="M22.474,0,0,9.058.638,10.6,23.112,1.548Z" fill="#e1e1e1"/>
                </g>
              </g>
            </g>
            <g id="Group_2732" data-name="Group 2732" transform="translate(24.916 0)">
              <g id="Group_2731" data-name="Group 2731">
                <g id="Group_2723" data-name="Group 2723" transform="translate(6.961 16.731)">
                  <path id="Path_688" data-name="Path 688" d="M22.474,0,0,9.058.638,10.6,23.111,1.54Z" fill="#e1e1e1"/>
                </g>
                <g id="Group_2724" data-name="Group 2724" transform="translate(5.963 14.339)">
                  <path id="Path_689" data-name="Path 689" d="M22.474,0,0,9.058.646,10.6,23.12,1.54Z" fill="#e1e1e1"/>
                </g>
                <g id="Group_2725" data-name="Group 2725" transform="translate(4.973 11.948)">
                  <path id="Path_690" data-name="Path 690" d="M22.474,0,0,9.058.638,10.6,23.111,1.548Z" fill="#e1e1e1"/>
                </g>
                <g id="Group_2726" data-name="Group 2726" transform="translate(3.975 9.565)">
                  <path id="Path_691" data-name="Path 691" d="M22.474,0,0,9.059.639,10.6,23.119,1.54Z" fill="#e1e1e1"/>
                </g>
                <g id="Group_2727" data-name="Group 2727" transform="translate(2.985 7.173)">
                  <path id="Path_692" data-name="Path 692" d="M22.474,0,0,9.058.638,10.6,23.112,1.54Z" fill="#e1e1e1"/>
                </g>
                <g id="Group_2728" data-name="Group 2728" transform="translate(1.988 4.782)">
                  <path id="Path_693" data-name="Path 693" d="M22.474,0,0,9.059.638,10.6,23.119,1.54Z" fill="#e1e1e1"/>
                </g>
                <g id="Group_2729" data-name="Group 2729" transform="translate(0.99 2.391)">
                  <path id="Path_694" data-name="Path 694" d="M22.481,0,0,9.058.645,10.6,23.119,1.54Z" fill="#e1e1e1"/>
                </g>
                <g id="Group_2730" data-name="Group 2730">
                  <path id="Path_695" data-name="Path 695" d="M22.474,0,0,9.058.638,10.6,23.119,1.54Z" fill="#e1e1e1"/>
                </g>
              </g>
            </g>
            <path id="Path_696" data-name="Path 696" d="M4.137,0,0,1.665,1.467,5.186,5.6,3.521Z" transform="translate(10.298 42.204)" fill="#e1e1e1"/>
            <path id="Path_697" data-name="Path 697" d="M4.137,0,0,1.665,1.467,5.186,5.6,3.521Z" transform="translate(8.163 37.077)" fill="#e1e1e1"/>
            <path id="Path_698" data-name="Path 698" d="M4.137,0,0,1.672,1.467,5.193,5.6,3.528Z" transform="translate(34.503 32.442)" fill="#e1e1e1"/>
            <path id="Path_699" data-name="Path 699" d="M4.137,0,0,1.665,1.459,5.186,5.6,3.521Z" transform="translate(32.376 27.322)" fill="#e1e1e1"/>
            <path id="Path_700" data-name="Path 700" d="M4.863,0,0,1.966.595,3.4,5.457,1.438Z" transform="translate(17.083 40.327)" fill="#e1e1e1"/>
            <path id="Path_701" data-name="Path 701" d="M4.863,0,0,1.958l.55,1.32L5.414,1.32Z" transform="translate(14.933 35.156)" fill="#e1e1e1"/>
            <path id="Path_702" data-name="Path 702" d="M4.863,0,0,1.958l.594,1.43L5.457,1.43Z" transform="translate(40.796 30.777)" fill="#e1e1e1"/>
            <path id="Path_703" data-name="Path 703" d="M47.676,0,0,19.21l.638,1.54L48.322,1.54Z" transform="translate(17.713 42.483)" fill="#e1e1e1"/>
            <path id="Path_704" data-name="Path 704" d="M47.683,0,0,19.217l.645,1.54L48.321,1.54Z" transform="translate(16.672 39.982)" fill="#e1e1e1"/>
            <path id="Path_705" data-name="Path 705" d="M47.676,0,0,19.217l.639,1.54L48.314,1.54Z" transform="translate(15.638 37.488)" fill="#e1e1e1"/>
            <path id="Path_706" data-name="Path 706" d="M47.676,0,0,19.217l.646,1.54L48.321,1.54Z" transform="translate(14.596 34.987)" fill="#e1e1e1"/>
            <path id="Path_707" data-name="Path 707" d="M47.676,0,0,19.217l.639,1.54L48.314,1.54Z" transform="translate(13.562 32.493)" fill="#e1e1e1"/>
            <path id="Path_708" data-name="Path 708" d="M47.676,0,0,19.217l.639,1.54L48.314,1.54Z" transform="translate(12.52 29.992)" fill="#e1e1e1"/>
            <g id="Group_2754" data-name="Group 2754" transform="translate(52.15 46.715)">
              <g id="Group_2753" data-name="Group 2753">
                <g id="Group_2740" data-name="Group 2740" transform="translate(5.55 4.636)">
                  <g id="Group_2733" data-name="Group 2733" transform="translate(0.062 0)">
                    <path id="Path_709" data-name="Path 709" d="M0,1.32,3.279,0,4.855,3.792,1.577,5.112Z" fill="#f7fbff"/>
                  </g>
                  <g id="Group_2734" data-name="Group 2734" transform="translate(1.485 1.797)">
                    <path id="Path_710" data-name="Path 710" d="M2.6,0,0,3.213l3.689-.6Z" fill="#f7fbff"/>
                  </g>
                  <g id="Group_2735" data-name="Group 2735" transform="translate(0 9.374)">
                    <path id="Path_711" data-name="Path 711" d="M1.25,1.042C1.088.4.692-.066.362.008S-.093.675.068,1.328.626,2.436.956,2.362,1.411,1.687,1.25,1.042Z" fill="#f7fbff"/>
                  </g>
                  <g id="Group_2738" data-name="Group 2738" transform="translate(0.423 3.635)">
                    <g id="Group_2736" data-name="Group 2736" transform="translate(2.667 0)">
                      <path id="Path_712" data-name="Path 712" d="M6.345,3.869C5.142.979,2.318-.627,0,.231L3.976,9.8A4.232,4.232,0,0,0,6.345,3.869Z" fill="#f7fbff"/>
                    </g>
                    <g id="Group_2737" data-name="Group 2737" transform="translate(0 0.238)">
                      <path id="Path_713" data-name="Path 713" d="M6.453,9.645c.066.015.125-.051.19-.081L2.667,0c-.029.015-.066.022-.1.037C.232.983-.677,4.122.541,7.049S3.688,9.132,6.453,9.645Z" fill="#f7fbff"/>
                    </g>
                  </g>
                  <g id="Group_2739" data-name="Group 2739" transform="translate(8.776 6.006)">
                    <path id="Path_714" data-name="Path 714" d="M.256,1.335C-.052.756-.089.169.182.03s.741.22,1.049.8S1.576,2,1.3,2.135.564,1.915.256,1.335Z" fill="#f7fbff"/>
                  </g>
                </g>
                <g id="Group_2751" data-name="Group 2751">
                  <g id="Group_2750" data-name="Group 2750">
                    <g id="Group_2749" data-name="Group 2749">
                      <path id="Path_715" data-name="Path 715" d="M0,.814.374.3.344,0,.308.264Z" transform="translate(7.592 4.658)" fill="#f7fbff"/>
                      <path id="Path_716" data-name="Path 716" d="M.043,0,0,.521.953.33.293.036Z" transform="translate(6.374 5.274)" fill="#f7fbff"/>
                      <g id="Group_2741" data-name="Group 2741">
                        <path id="Path_717" data-name="Path 717" d="M10.2.88c.073.11.161.213.235.323s.168.206.249.308.169.2.257.286.168.183.256.257.169.154.242.22.147.125.212.176.125.1.176.132a1.54,1.54,0,0,0,.162.11,1.069,1.069,0,0,1-.191-.044,2.535,2.535,0,0,1-.469-.205,2.766,2.766,0,0,1-.293-.183,2.2,2.2,0,0,1-.3-.235c-.1-.088-.2-.183-.3-.286s-.191-.213-.272-.323S10,1.188,9.924,1.071A.634.634,0,0,1,9.88,1L6.535,2.347,7,3.851l.946.814.03.293-.382.513L7.334,5.6l-.961.191.044-.521.1-1.232L5.779,2.648,2.472,3.983c.022.11.037.227.059.345.022.139.022.278.037.418s0,.279-.007.411a3.191,3.191,0,0,1-.044.381c-.015.117-.052.228-.074.33a2.144,2.144,0,0,1-.191.469,1,1,0,0,1-.1.161s.015-.066.037-.183c.007-.059.022-.132.029-.213s.015-.176.03-.272.015-.205.015-.323,0-.235,0-.359-.015-.249-.023-.381-.022-.264-.044-.4c-.015-.081-.021-.169-.037-.25L0,4.988C.813,6.059,2.956,8.4,5.831,7.892L7.408,5.582l2.626.565A5.579,5.579,0,0,0,12.388,0L10.2.88C10.195.873,10.195.88,10.2.88Z" fill="#f7fbff"/>
                      </g>
                      <g id="Group_2742" data-name="Group 2742" transform="translate(5.78 2.347)">
                        <path id="Path_718" data-name="Path 718" d="M.638,2.927l.176.264.734.066.264-.132.308-.55.037-.264L1.21,1.5.748,0,0,.3.733,1.694Z" fill="#f7fbff"/>
                      </g>
                      <g id="Group_2743" data-name="Group 2743" transform="translate(9.858 0.866)">
                        <path id="Path_719" data-name="Path 719" d="M.293.55C.382.66.477.77.564.873c.1.1.2.2.3.286a2.9,2.9,0,0,0,.3.235,2.163,2.163,0,0,0,.293.183,2.778,2.778,0,0,0,.47.205,1.071,1.071,0,0,0,.19.044s-.058-.037-.161-.11q-.078-.055-.176-.132c-.066-.051-.14-.117-.213-.176l-.242-.22c-.088-.081-.169-.169-.257-.257S.9.741.815.646.646.44.564.337.4.125.33.015C.33.007.323.007.323,0L0,.132A.736.736,0,0,1,.044.205C.125.323.213.433.293.55Z" fill="#f7fbff"/>
                      </g>
                      <g id="Group_2744" data-name="Group 2744" transform="translate(2.127 3.975)">
                        <path id="Path_720" data-name="Path 720" d="M.1.785c.007.132.022.257.022.381s.007.242,0,.359-.008.22-.015.323-.014.191-.029.271-.022.154-.029.213c-.022.117-.037.183-.037.183a1.7,1.7,0,0,0,.1-.161A2.512,2.512,0,0,0,.3,1.885a2.128,2.128,0,0,0,.073-.33,3.026,3.026,0,0,0,.044-.381C.425,1.042.425.9.425.763A4.168,4.168,0,0,0,.389.345C.367.227.352.117.33,0L0,.132C.014.213.021.3.037.381.065.521.073.653.1.785Z" fill="#f7fbff"/>
                      </g>
                      <g id="Group_2748" data-name="Group 2748" transform="translate(5.787 4.166)">
                        <g id="Group_2745" data-name="Group 2745" transform="translate(0.587 0.491)">
                          <path id="Path_721" data-name="Path 721" d="M.043,0,0,.521.953.33" transform="translate(0 0.616)" fill="#f7fbff"/>
                          <path id="Path_722" data-name="Path 722" d="M0,.814.374.3.344,0,.308.264Z" transform="translate(1.217)" fill="#f7fbff"/>
                        </g>
                        <g id="Group_2746" data-name="Group 2746" transform="translate(1.614 0)">
                          <path id="Path_723" data-name="Path 723" d="M2.626,2.494,0,1.4.784,0l2.04,1.944Z" fill="#f7fbff"/>
                        </g>
                        <g id="Group_2747" data-name="Group 2747" transform="translate(0 0.924)">
                          <path id="Path_724" data-name="Path 724" d="M.564,3.051,1.613.477,0,0,.029,2.795Z" fill="#f7fbff"/>
                        </g>
                      </g>
                    </g>
                  </g>
                </g>
                <g id="Group_2752" data-name="Group 2752" transform="translate(3.044 3.066)">
                  <path id="Path_725" data-name="Path 725" d="M.256,1.306l.154.367L2.1.99,1.951.631,1.944.6,1.695,0,1.621.029l.234.557L.3,1.21.066.653,0,.682Z" fill="#f7fbff"/>
                </g>
              </g>
            </g>
            <path id="Path_726" data-name="Path 726" d="M22.474,0,0,9.058l.7,1.474L23.111,1.54Z" transform="translate(23.633 54.409)" fill="#e1e1e1"/>
          </g>
          <g id="Group_2756" data-name="Group 2756" transform="translate(63.006 68.961)">
            <path id="Path_727" data-name="Path 727" d="M1.556,6.711H8.12c.022-.015.037-.029.059-.044C11.186,4.3,9.256.865,9.256.865L7.548,0V.939A7.2,7.2,0,0,0,2.582,5.486a5.222,5.222,0,0,0-2.376-2.2C.594,3.961,0,4.841,0,4.841A6.231,6.231,0,0,0,1.556,6.711Z" fill="#f7fbff"/>
          </g>
        </g>
        <g id="Group_2768" data-name="Group 2768" transform="translate(188.909 28.788) rotate(20)">
          <g id="Group_2766" data-name="Group 2766">
            <g id="Group_2765" data-name="Group 2765">
              <path id="Path_735" data-name="Path 735" d="M.9,3.247a.465.465,0,0,1-.58.3h0a.446.446,0,0,1-.3-.565L.866.321a.465.465,0,0,1,.58-.3h0a.446.446,0,0,1,.3.565Z" transform="translate(33.22 11.921)" fill="#fffffa"/>
              <path id="Path_736" data-name="Path 736" d="M.9,3.247a.463.463,0,0,1-.579.3h0a.446.446,0,0,1-.3-.565L.866.321a.465.465,0,0,1,.58-.3h0a.451.451,0,0,1,.3.572Z" transform="translate(31.701 16.71)" fill="#fffffa"/>
              <g id="Group_2764" data-name="Group 2764">
                <path id="Path_737" data-name="Path 737" d="M8.692,6.447,0,3.77,1.2,0,9.887,2.677Z" transform="translate(6.984 38.155)" fill="#fffffa"/>
                <g id="Group_2763" data-name="Group 2763">
                  <path id="Path_738" data-name="Path 738" d="M14.632,4.889c-.242.755-3.711.367-7.746-.88S-.229,1.141.013.385s3.712-.367,7.746.88S14.874,4.126,14.632,4.889Z" transform="translate(16.998 2.849)" fill="#fffffa"/>
                  <g id="Group_2762" data-name="Group 2762">
                    <path id="Path_739" data-name="Path 739" d="M.033.478a.682.682,0,0,0,.455.858L5.74,2.95l.41-1.306L.9.03A.7.7,0,0,0,.033.478Z" transform="translate(18.027 2.977)" fill="none"/>
                    <path id="Path_740" data-name="Path 740" d="M4.694,2.75A.7.7,0,0,0,5.567,2.3a.683.683,0,0,0-.455-.858L.41,0,0,1.306Z" transform="translate(23.774 4.621)" fill="none"/>
                    <path id="Path_741" data-name="Path 741" d="M1.878,2.017A1.677,1.677,0,0,0,1.012,0L0,3.191A1.732,1.732,0,0,0,1.878,2.017Z" transform="translate(11.95 39.952)" fill="none"/>
                    <path id="Path_742" data-name="Path 742" d="M.08,1.192A1.69,1.69,0,0,0,1.21,3.319a2.119,2.119,0,0,0,.279.059L2.5.187a1.42,1.42,0,0,0-.264-.11A1.727,1.727,0,0,0,.08,1.192Z" transform="translate(10.454 39.765)" fill="none"/>
                    <path id="Path_743" data-name="Path 743" d="M.9.03A.7.7,0,0,0,.03.478a.678.678,0,0,0,.455.851A.7.7,0,0,0,1.351.881.672.672,0,0,0,.9.03Z" transform="translate(8.612 39.9)" fill="none"/>
                    <path id="Path_744" data-name="Path 744" d="M.9.03A.7.7,0,0,0,.033.478a.672.672,0,0,0,.455.851A.7.7,0,0,0,1.353.881.677.677,0,0,0,.9.03Z" transform="translate(14.359 41.668)" fill="none"/>
                    <path id="Path_745" data-name="Path 745" d="M11.664,43.084a1.69,1.69,0,0,1-1.13-2.127A1.735,1.735,0,0,1,12.7,39.842a1.421,1.421,0,0,1,.264.11l.3-.939-3.6-5.78L14.231,5.868l9.051,1.614.491-1.548L18.522,4.32a.68.68,0,0,1-.455-.858.7.7,0,0,1,.873-.448l5.252,1.614.491-1.548L15.111.132a2.969,2.969,0,0,0-3.7,1.907L.134,37.561A2.9,2.9,0,0,0,2.07,41.2l9.572,2.948.316-1C11.855,43.128,11.759,43.114,11.664,43.084ZM9.1,41.229a.678.678,0,0,1-.455-.851.692.692,0,0,1,.865-.447.677.677,0,0,1,.455.851A.692.692,0,0,1,9.1,41.229Z" fill="#37485c"/>
                    <path id="Path_746" data-name="Path 746" d="M22.063,2.78,13.034,0l-.491,1.548,4.7,1.445a.676.676,0,0,1,.455.858.7.7,0,0,1-.873.448l-4.7-1.445L11.633,4.4l8.508,3.844L9.807,37.327,1.628,35.94l-.3.939A1.681,1.681,0,0,1,2.193,38.9,1.724,1.724,0,0,1,.315,40.07l-.315,1,9.029,2.78a2.966,2.966,0,0,0,3.7-1.907L24.006,6.425A2.92,2.92,0,0,0,22.063,2.78ZM3.213,39.923a.677.677,0,0,1-.455-.851.692.692,0,0,1,.865-.448.677.677,0,0,1,.455.851A.694.694,0,0,1,3.213,39.923Z" transform="translate(11.634 3.073)" fill="#37485c"/>
                  </g>
                </g>
              </g>
            </g>
          </g>
          <g id="Group_2767" data-name="Group 2767" transform="translate(3.022 4.321)">
            <path id="Path_747" data-name="Path 747" d="M10.4,37.121,20.068,6.7a.647.647,0,0,0-.426-.807L.609.029A.67.67,0,0,0,0,.146L10.371,37.2A.257.257,0,0,0,10.4,37.121Z" transform="translate(9.91)" fill="#fff"/>
            <path id="Path_748" data-name="Path 748" d="M9.91,0A.619.619,0,0,0,9.7.308L.031,30.733a.646.646,0,0,0,.425.807L19.49,37.4a.658.658,0,0,0,.785-.338Z" transform="translate(0 0.146)" fill="#fff"/>
          </g>
        </g>
        <g id="Group_2700" data-name="Group 2700" transform="matrix(1, 0.017, -0.017, 1, 50.568, 32.151)">
          <g id="Group_2687" data-name="Group 2687" transform="translate(32.222 0)">
            <path id="Path_516" data-name="Path 516" d="M9.835,92.044l62.642-7.02L62.642,0,0,7.02Z" fill="#f7fbff"/>
            <g id="Group_2674" data-name="Group 2674" transform="translate(39.653 65.409)">
              <path id="Path_517" data-name="Path 517" d="M.211,4.859,27.133,1.84,26.915,0,0,3.012Z" fill="#8a8387"/>
              <path id="Path_518" data-name="Path 518" d="M.218,4.859,27.133,1.84,26.922,0,0,3.012Z" transform="translate(0.327 2.863)" fill="#8a8387"/>
              <path id="Path_519" data-name="Path 519" d="M.211,4.859,27.133,1.84,26.915,0,0,3.012Z" transform="translate(0.661 5.725)" fill="#8a8387"/>
              <path id="Path_520" data-name="Path 520" d="M.218,4.859,27.133,1.84,26.922,0,0,3.013Z" transform="translate(0.988 8.588)" fill="#8a8387"/>
              <path id="Path_521" data-name="Path 521" d="M.211,4.859,27.133,1.84,26.915,0,0,3.013Z" transform="translate(1.322 11.45)" fill="#8a8387"/>
              <path id="Path_522" data-name="Path 522" d="M.211,4.86,27.126,1.84,26.915,0,0,3.013Z" transform="translate(1.656 14.313)" fill="#8a8387"/>
            </g>
            <g id="Group_2675" data-name="Group 2675" transform="translate(9.146 63.024)">
              <path id="Path_523" data-name="Path 523" d="M.211,4.866,27.126,1.847,26.915,0,0,3.019Z" fill="#8a8387"/>
              <path id="Path_524" data-name="Path 524" d="M.211,4.866,27.133,1.847,26.921,0,0,3.019Z" transform="translate(0.327 2.863)" fill="#8a8387"/>
              <path id="Path_525" data-name="Path 525" d="M.211,4.866,27.133,1.847,26.915,0,0,3.019Z" transform="translate(0.661 5.725)" fill="#8a8387"/>
              <path id="Path_526" data-name="Path 526" d="M.218,4.866,27.133,1.847,26.922,0,0,3.019Z" transform="translate(0.988 8.588)" fill="#8a8387"/>
              <path id="Path_527" data-name="Path 527" d="M.211,4.866,27.133,1.847,26.915,0,0,3.019Z" transform="translate(1.322 11.45)" fill="#8a8387"/>
              <path id="Path_528" data-name="Path 528" d="M.218,4.866,27.133,1.847,26.922,0,0,3.019Z" transform="translate(1.649 14.313)" fill="#8a8387"/>
              <path id="Path_529" data-name="Path 529" d="M.211,4.866,27.133,1.847,26.915,0,0,3.019Z" transform="translate(1.983 17.175)" fill="#8a8387"/>
              <path id="Path_530" data-name="Path 530" d="M.211,4.866,27.126,1.847,26.915,0,0,3.019Z" transform="translate(2.317 20.038)" fill="#8a8387"/>
            </g>
            <path id="Path_531" data-name="Path 531" d="M.484,4.778l4.955-.559L4.955,0,0,.559Z" transform="translate(59.568 47.682)" fill="#eba8a0"/>
            <path id="Path_532" data-name="Path 532" d="M.484,4.771l4.955-.552L4.955,0,0,.552Z" transform="translate(60.277 53.823)" fill="#83cfee"/>
            <path id="Path_533" data-name="Path 533" d="M.484,4.771l4.955-.552L4.955,0,0,.559Z" transform="translate(30.575 50.933)" fill="#c8db57"/>
            <path id="Path_534" data-name="Path 534" d="M.484,4.771l4.955-.559L4.955,0,0,.552Z" transform="translate(31.283 57.074)" fill="#f3bc5a"/>
            <path id="Path_535" data-name="Path 535" d="M.2,2.372l5.827-.654L5.827,0,0,.654Z" transform="translate(51.212 49.856)" fill="silver"/>
            <path id="Path_536" data-name="Path 536" d="M.177,2.236,6,1.581,5.82,0,0,.654Z" transform="translate(51.948 56.188)" fill="silver"/>
            <path id="Path_537" data-name="Path 537" d="M.2,2.365l5.827-.647L5.82,0,0,.654Z" transform="translate(22.819 53.039)" fill="silver"/>
            <path id="Path_538" data-name="Path 538" d="M.184,2.229l5.827-.648L5.827,0,0,.648Z" transform="translate(23.548 59.37)" fill="silver"/>
            <path id="Path_539" data-name="Path 539" d="M.218,8.24l57.1-6.393L57.108,0,0,6.4Z" transform="translate(5.221 28.707)" fill="#8a8387"/>
            <path id="Path_540" data-name="Path 540" d="M.211,8.24l57.108-6.4L57.1,0,0,6.393Z" transform="translate(5.568 31.699)" fill="#8a8387"/>
            <path id="Path_541" data-name="Path 541" d="M.211,8.247l57.1-6.4L57.1,0,0,6.4Z" transform="translate(5.916 34.684)" fill="#8a8387"/>
            <path id="Path_542" data-name="Path 542" d="M.218,8.247l57.1-6.4L57.108,0,0,6.4Z" transform="translate(6.257 37.677)" fill="#8a8387"/>
            <path id="Path_543" data-name="Path 543" d="M.211,8.247l57.108-6.4L57.108,0,0,6.4Z" transform="translate(6.604 40.669)" fill="#8a8387"/>
            <path id="Path_544" data-name="Path 544" d="M.211,8.24,57.319,1.847,57.1,0,0,6.4Z" transform="translate(6.952 43.661)" fill="#8a8387"/>
            <path id="Path_545" data-name="Path 545" d="M19.833,21.1,2.324,22.975,0,1.867,17.5,0Z" transform="translate(3.49 10.217)" fill="#83cfee"/>
            <g id="Group_2683" data-name="Group 2683" transform="translate(7.661 11.857)">
              <g id="Group_2677" data-name="Group 2677" transform="translate(0.054 0)">
                <path id="Path_546" data-name="Path 546" d="M4.451,4.539.525,4.975,0,.436,3.926,0Z" transform="translate(4.601 11.888)" fill="#efd4b7"/>
                <path id="Path_547" data-name="Path 547" d="M.361,3.122,4.144.457,0,0Z" transform="translate(4.513 11.588)" fill="#ccac90"/>
                <path id="Path_548" data-name="Path 548" d="M0,1.329c-.027.743.259,1.356.634,1.37s.7-.579.722-1.329S1.1.014.724,0,.022.58,0,1.329Z" transform="translate(10.577 4.984)" fill="#efd4b7"/>
                <g id="Group_2676" data-name="Group 2676" transform="translate(0.845 1.26)">
                  <path id="Path_549" data-name="Path 549" d="M.049,5.657c.4,3.462,2.938,6.032,5.691,5.8L4.417,0A4.764,4.764,0,0,0,.049,5.657Z" transform="translate(0 0.071)" fill="#ddbb9d"/>
                  <path id="Path_550" data-name="Path 550" d="M.232.044C.157.051.075.064,0,.071L1.322,11.528c.041,0,.075-.007.116-.007,2.8-.313,4.744-3.415,4.341-6.925S3.033-.27.232.044Z" transform="translate(4.417)" fill="#efd4b7"/>
                </g>
                <path id="Path_551" data-name="Path 551" d="M8.711,3.526a8.142,8.142,0,0,1-6.734,3.4L1.685,7.935.117,6.5S-.9,2.244,3.054.588s5.1.7,5.1.7,2.1-.136,3.122,3.694c0,0-.907.77-.7,1.608A5.639,5.639,0,0,1,8.711,3.526Z" transform="translate(0.02)" fill="#31323a"/>
                <path id="Path_552" data-name="Path 552" d="M1.276,1.177c.157.716.007,1.35-.327,1.424S.219,2.145.062,1.429.056.08.39,0,1.119.462,1.276,1.177Z" transform="translate(0 6.11)" fill="#ddbb9d"/>
              </g>
              <g id="Group_2682" data-name="Group 2682" transform="translate(0 13.858)">
                <g id="Group_2681" data-name="Group 2681">
                  <g id="Group_2680" data-name="Group 2680">
                    <path id="Path_553" data-name="Path 553" d="M.627,0,.055.443,0,.77.116.5Z" transform="translate(6.209 2.494)" fill="none"/>
                    <path id="Path_554" data-name="Path 554" d="M.879.627,1.091.082,0,0,.62.511Z" transform="translate(7.15 2.433)" fill="none"/>
                    <path id="Path_555" data-name="Path 555" d="M2.61,6.209c-.041-.143-.1-.273-.157-.416s-.116-.273-.17-.409S2.167,5.118,2.1,5s-.129-.245-.191-.354-.13-.211-.191-.307-.123-.184-.177-.252-.1-.136-.143-.191c-.082-.1-.136-.164-.136-.164s.075.034.191.1a3.151,3.151,0,0,1,.443.361,3.634,3.634,0,0,1,.259.286,2.848,2.848,0,0,1,.252.348c.082.123.157.259.232.4s.136.279.191.429.116.293.15.443a.443.443,0,0,0,.027.089l4-.45L6.972,3.98,6.2,2.828,6.257,2.5l.566-.443L7.143,2l1.091.082-.211.545L7.538,3.919,7.9,5.636l3.967-.443c.007-.13.027-.252.041-.382.02-.157.061-.307.089-.463a4.1,4.1,0,0,1,.136-.436,3.47,3.47,0,0,1,.17-.4,3.088,3.088,0,0,1,.184-.334,2.979,2.979,0,0,1,.348-.45A1.377,1.377,0,0,1,13,2.59a1.938,1.938,0,0,0-.1.191c-.027.061-.061.136-.1.218s-.068.184-.116.286-.075.218-.116.341-.068.252-.109.389-.061.279-.1.416-.055.286-.075.436c-.014.1-.027.191-.041.279l2.576-.286C14.285,3.469,12.711.313,9.467,0L7.061,2.011,4.416.62A6.272,6.272,0,0,0,0,6.516l2.61-.293C2.617,6.222,2.617,6.216,2.61,6.209Z" transform="translate(0 0.436)" fill="#2c5871"/>
                    <path id="Path_556" data-name="Path 556" d="M1.82.627l-.1-.334L.941,0,.627.061l-.511.5L0,.832.77,1.99.8,3.742l.9-.1L1.336,1.922Z" transform="translate(6.209 2.433)" fill="#34adac"/>
                    <path id="Path_557" data-name="Path 557" d="M1.568,1.922c-.054-.15-.129-.286-.191-.43s-.15-.273-.232-.4S.981.859.893.75A3.59,3.59,0,0,0,.634.464,3.13,3.13,0,0,0,.191.1,1.065,1.065,0,0,0,0,0,1.664,1.664,0,0,1,.136.164C.177.218.225.279.279.354S.388.518.457.607.579.8.647.913s.13.232.191.354.123.259.184.388.116.266.17.409.109.273.157.416a.024.024,0,0,0,.007.014l.382-.041a.439.439,0,0,0-.027-.089A3.69,3.69,0,0,0,1.568,1.922Z" transform="translate(1.261 4.164)" fill="#0c333f"/>
                    <path id="Path_558" data-name="Path 558" d="M.5,1.84c.034-.143.055-.286.1-.416s.068-.266.109-.389S.791.8.825.7.9.491.941.409s.068-.157.1-.218A1.922,1.922,0,0,1,1.131,0S1.07.048.968.143A2.6,2.6,0,0,0,.62.593,3.058,3.058,0,0,0,.436.927a4.3,4.3,0,0,0-.17.4,4.068,4.068,0,0,0-.136.436c-.034.15-.068.307-.089.463C.027,2.351.007,2.481,0,2.6l.4-.048c.014-.1.027-.184.041-.279C.45,2.133.484,1.983.5,1.84Z" transform="translate(11.873 3.026)" fill="#0c333f"/>
                    <g id="Group_2679" data-name="Group 2679" transform="translate(4.198 0)">
                      <g id="Group_2678" data-name="Group 2678" transform="translate(2.011 2.433)">
                        <path id="Path_559" data-name="Path 559" d="M.879.627,1.091.082,0,0" transform="translate(0.941)" fill="#86c1be"/>
                        <path id="Path_560" data-name="Path 560" d="M.627,0,.055.443,0,.77.116.5Z" transform="translate(0 0.061)" fill="#86c1be"/>
                      </g>
                      <path id="Path_561" data-name="Path 561" d="M.382,0,2.869,1.956,1.588,3.224,0,.532Z" transform="translate(0 0.498)" fill="#0c333f"/>
                      <path id="Path_562" data-name="Path 562" d="M1.915,0,0,2.454l1.588.988L2.406.436Z" transform="translate(2.869)" fill="#0c333f"/>
                    </g>
                  </g>
                </g>
              </g>
              <path id="Path_563" data-name="Path 563" d="M2.079.443,2.031,0,0,.232.048.661.055.7l.082.722L.218,1.4.143.736,2,.532l.082.668.082-.014Z" transform="translate(9.017 18.377)" fill="#0c333f"/>
            </g>
            <path id="Path_564" data-name="Path 564" d="M.211,4.859,27.126,1.84,26.915,0,0,3.013Z" transform="translate(28.612 16.453)" fill="#8a8387"/>
            <path id="Path_565" data-name="Path 565" d="M.211,4.86,27.133,1.84,26.922,0,0,3.012Z" transform="translate(28.939 19.315)" fill="#8a8387"/>
            <path id="Path_566" data-name="Path 566" d="M.211,4.859,27.133,1.84,26.915,0,0,3.012Z" transform="translate(29.273 22.178)" fill="#8a8387"/>
            <path id="Path_567" data-name="Path 567" d="M.218,4.859,27.133,1.84,26.922,0,0,3.012Z" transform="translate(29.6 25.04)" fill="#8a8387"/>
            <g id="Group_2686" data-name="Group 2686" transform="translate(29.239 8.833)">
              <path id="Path_568" data-name="Path 568" d="M24.454,6.325.7,8.86,0,2.535,23.752,0Z" fill="#37485c"/>
              <g id="Group_2685" data-name="Group 2685" transform="translate(8.03 1.663)">
                <g id="Group_2684" data-name="Group 2684">
                  <path id="Path_569" data-name="Path 569" d="M3.925,4.481a3.113,3.113,0,0,1-1.186.327A2.244,2.244,0,0,1,.02,2.757,2.381,2.381,0,0,1,2.316.024,2.8,2.8,0,0,1,3.5.106L3.373.957A2.307,2.307,0,0,0,2.459.883,1.4,1.4,0,0,0,1.13,2.573,1.406,1.406,0,0,0,2.807,3.922a2.824,2.824,0,0,0,.872-.245Z" transform="translate(0 0.528)" fill="#f7fbff"/>
                  <path id="Path_570" data-name="Path 570" d="M2.017,4.941,0,.47,1.165.348l.791,1.895c.218.532.423,1.043.6,1.608h.02c.054-.566.143-1.131.245-1.683L3.2.123,4.335,0,3.258,4.8Z" transform="translate(3.789)" fill="#f7fbff"/>
                </g>
              </g>
            </g>
          </g>
          <path id="Path_571" data-name="Path 571" d="M6.834,1.931A3.53,3.53,0,0,1,5.267,6.722,3.637,3.637,0,0,1,.4,5.182,3.529,3.529,0,0,1,1.968.391,3.651,3.651,0,0,1,6.834,1.931Z" transform="translate(82.571 66.306)" fill="#bf9678"/>
          <path id="Path_572" data-name="Path 572" d="M6.834,1.934A3.53,3.53,0,0,1,5.267,6.725,3.637,3.637,0,0,1,.4,5.185,3.53,3.53,0,0,1,1.968.394,3.645,3.645,0,0,1,6.834,1.934Z" transform="translate(85.065 70.29)" fill="#bf9678"/>
          <path id="Path_573" data-name="Path 573" d="M3.714,11.232s8.328.416,12.547,7.954,4.471-.436,4.471-.436l1.3-10.6-6.2-7.8L6.536,0,0,3.306Z" transform="translate(86.536 65.102)" fill="#bf9678"/>
          <path id="Path_574" data-name="Path 574" d="M12.375,15.965s4.157,7.974,8.887,5.582,1.295-9.7,1.295-9.7l-3.3-5.466S9.111,8.42,5.907,8.57s-8.5-4.825-4.43-5.78l17-2.638A6.684,6.684,0,0,1,25.2,2.572l7.2,8.5s3.415,2.542,2.331,6.475-3.68,14.142-3.68,14.142l.457,1.166L19.2,39.07l-.756-1.458a73.108,73.108,0,0,1-8.335-11.825c-2.978-5.7.975-6.011.975-6.011Z" transform="translate(83.15 59.668)" fill="#e8bf94"/>
          <g id="Group_2688" data-name="Group 2688" transform="translate(97.708 86.376)">
            <path id="Path_575" data-name="Path 575" d="M0,4.768,9.031.209a1.953,1.953,0,0,1,2.6.825l3.524,6.761a1.883,1.883,0,0,1-.838,2.563l-9.031,4.56L4.083,12.606Z" transform="translate(10.078)" fill="#8c2b3f"/>
            <path id="Path_576" data-name="Path 576" d="M1.047,4.56,10.078,0l4.089,7.845,1.206,2.311-9.031,4.56a1.952,1.952,0,0,1-2.6-.825L.216,7.129A1.893,1.893,0,0,1,1.047,4.56Z" transform="translate(0 4.775)" fill="#401712"/>
          </g>
          <g id="Group_2689" data-name="Group 2689" transform="translate(98.204 89.218)">
            <path id="Path_577" data-name="Path 577" d="M11.62,0,1.179,5.275C.259,5.739-.225,6.625.1,7.252L7.272,21H22.58Z" transform="translate(0 5.56)" fill="#d86a27"/>
            <path id="Path_578" data-name="Path 578" d="M26.26,26.566,12.7.571c-.327-.627-1.343-.757-2.263-.293L0,5.553,10.953,26.559H26.26Z" transform="translate(11.621)" fill="#f2a324"/>
          </g>
          <path id="Path_579" data-name="Path 579" d="M.209,2.694a1.889,1.889,0,0,0,2.529.8A1.832,1.832,0,0,0,3.549,1,1.891,1.891,0,0,0,1.02.206,1.83,1.83,0,0,0,.209,2.694Z" transform="translate(101.634 103.104)" fill="#b92428"/>
          <path id="Path_580" data-name="Path 580" d="M.206,2.694a1.892,1.892,0,0,0,2.529.8A1.832,1.832,0,0,0,3.546,1a1.891,1.891,0,0,0-2.529-.8A1.836,1.836,0,0,0,.206,2.694Z" transform="translate(103.961 107.568)" fill="#b92428"/>
          <g id="Group_2690" data-name="Group 2690" transform="translate(28.153 53.27)">
            <path id="Path_581" data-name="Path 581" d="M21.592.116c-3.326-.8-4.205,2.835-4.205,2.835l-3.53,13.086a5.29,5.29,0,0,1-3.5.62c-.293-.1-.218-.654.1-1.506V5.9C7.524,8.37,3.381,11.88,2.76,13.556c-.5,1.35-.675,4.11-.777,7.729-.075,2.733-.109,5.95-.2,9.419A12.848,12.848,0,0,1,0,36.027c2.256,2.072,6.754,6.216,9.671,8.9a3.79,3.79,0,0,0,3.749.8c5.043-3.605,3.81-5.18,5.268-7.851,1.527-2.794,4.246-9.876,3.7-16.746-.532-6.7.061-5.023,1.206-12.493.027-.191.061-.389.089-.593C24.89-.123,21.592.116,21.592.116Z" fill="#e8bf94"/>
          </g>
          <g id="Group_2693" data-name="Group 2693" transform="translate(14.992 88.371)">
            <g id="Group_2692" data-name="Group 2692">
              <g id="Group_2691" data-name="Group 2691" transform="translate(4.624 0)">
                <path id="Path_582" data-name="Path 582" d="M7.293,0,14.2,6.291a1.748,1.748,0,0,1,.1,2.495L9.446,13.958a1.816,1.816,0,0,1-2.535.1L0,7.763,1.656,6Z" transform="translate(7.481 6.761)" fill="#401712"/>
                <path id="Path_583" data-name="Path 583" d="M7.869.47,14.78,6.761l-5.636,6L7.487,14.524.576,8.233a1.748,1.748,0,0,1-.1-2.495L5.334.565A1.815,1.815,0,0,1,7.869.47Z" fill="#8c2b3f"/>
              </g>
              <path id="Path_584" data-name="Path 584" d="M17.318,17.748,25.293,9.31c.45-.477.245-1.391-.463-2.031L16.834,0,0,17.707Z" transform="translate(0 9.664)" fill="#d86a27"/>
            </g>
            <path id="Path_585" data-name="Path 585" d="M.523.566A1.833,1.833,0,0,0,.577,3.183a1.908,1.908,0,0,0,2.658-.048A1.834,1.834,0,0,0,3.181.518,1.9,1.9,0,0,0,.523.566Z" transform="translate(17.695 16.486)" fill="#b92428"/>
            <path id="Path_586" data-name="Path 586" d="M.523.568A1.833,1.833,0,0,0,.577,3.186a1.907,1.907,0,0,0,2.658-.048A1.833,1.833,0,0,0,3.181.521,1.9,1.9,0,0,0,.523.568Z" transform="translate(14.158 20.103)" fill="#b92428"/>
          </g>
          <g id="Group_2694" data-name="Group 2694" transform="translate(0 90.173)">
            <path id="Path_587" data-name="Path 587" d="M31.827,7.863,23.832.584C23.123-.057,22.19-.193,21.74.29L0,25.576H0l14.972.014Z" fill="#f2a324"/>
          </g>
          <g id="Group_2697" data-name="Group 2697" transform="translate(73.531 63.876)">
            <g id="Group_2696" data-name="Group 2696">
              <path id="Path_588" data-name="Path 588" d="M4.021,3.524.436,3.953,0,.429,3.585,0ZM.811,3.483l2.726-.327L3.2.47.477.8Z" fill="#8a8387"/>
              <g id="Group_2695" data-name="Group 2695" transform="translate(1.118 0.239)">
                <path id="Path_589" data-name="Path 589" d="M.906,2.528,0,1.765l.245-.286.607.511L2.386,0l.3.225Z" fill="silver"/>
              </g>
            </g>
          </g>
          <g id="Group_2699" data-name="Group 2699" transform="translate(76.305 63.692)">
            <path id="Path_590" data-name="Path 590" d="M1.548,5.461A2.04,2.04,0,0,1,.069,2.96L.458,1.522A2.075,2.075,0,0,1,2.994.07L4.459.452A2.032,2.032,0,0,1,5.931,2.946L5.542,4.391A2.075,2.075,0,0,1,3.007,5.843Z" transform="translate(36.53 8.456)" fill="#608e9b"/>
            <path id="Path_591" data-name="Path 591" d="M0,.32,1.581,1.547,2,0Z" transform="translate(0 0.838)" fill="#31312f"/>
            <g id="Group_2698" data-name="Group 2698" transform="translate(5.725 0.007)">
              <path id="Path_592" data-name="Path 592" d="M31.345,7.906.934,0a1.654,1.654,0,0,1,.941,1.643A1.59,1.59,0,0,1,.014,2.658L0,2.719,30.6,10.68Z" transform="translate(0 2.876)" fill="#d46255"/>
              <path id="Path_593" data-name="Path 593" d="M31.222,7.961.62,0,.613.014A1.586,1.586,0,0,1,1.786,1.827,1.766,1.766,0,0,1,0,2.835c.02.014.041.027.054.034l30.411,7.906Z" transform="translate(0.879)" fill="#eb7260"/>
            </g>
            <path id="Path_594" data-name="Path 594" d="M5.657.034,5.664,0,.416.832,0,2.379,4.144,5.6V5.6h.014l.007.007h0A1.6,1.6,0,0,0,6.025,4.58a1.509,1.509,0,0,0-.832-1.67,1.57,1.57,0,0,0,1.629-1.05A1.586,1.586,0,0,0,5.657.034Z" transform="translate(1.581)" fill="#e7d7c9"/>
            <path id="Path_595" data-name="Path 595" d="M1.472,5.923,2.958.381,1.486,0,0,5.541Z" transform="translate(36.334 7.995)" fill="#c8962c"/>
            <path id="Path_596" data-name="Path 596" d="M.165,5.82a.215.215,0,0,1-.157-.266L1.453.163A.227.227,0,0,1,1.719.006h0a.218.218,0,0,1,.157.266L.431,5.663a.217.217,0,0,1-.266.157Z" transform="translate(36.864 8.05)" fill="#edb624"/>
            <path id="Path_597" data-name="Path 597" d="M.165,5.82a.218.218,0,0,1-.157-.266L1.453.163A.228.228,0,0,1,1.726.006h0a.22.22,0,0,1,.157.266L.438,5.67a.227.227,0,0,1-.273.15Z" transform="translate(36.141 7.886)" fill="#edb624"/>
          </g>
          <path id="Path_598" data-name="Path 598" d="M14.329,16.333a3.527,3.527,0,0,1-1.561,4.785h0a3.631,3.631,0,0,1-4.859-1.54L.4,5.176A3.533,3.533,0,0,1,1.958.391h0a3.643,3.643,0,0,1,4.859,1.54Z" transform="translate(85.102 65.461)" fill="#e8bf94"/>
        </g>
        <g id="Group_2761" data-name="Group 2761" transform="translate(0 72.529)">
          <g id="Group_2760" data-name="Group 2760">
            <path id="Path_728" data-name="Path 728" d="M0,2.739S3.741-1.016,4.423.267s.631,2.222.117,2.794-3.6.924-3.6.924Z" transform="translate(26.886 0.996)" fill="#2c3b49"/>
            <path id="Path_729" data-name="Path 729" d="M.106.081S-.451,5.3.987,4.995,3.136,4.056,3.253,3.3,1.676,0,1.676,0Z" transform="translate(8.604 41.567)" fill="#2c3b49"/>
            <path id="Path_730" data-name="Path 730" d="M.312,34.819l5.3-11.046a3.731,3.731,0,0,1,4.973-1.54l.117.051a16.656,16.656,0,0,1,2.193-4.518l-.139-.066a3.592,3.592,0,0,1-1.966-4.731l5.3-11.046A3.725,3.725,0,0,1,21.047.383l6.667,3.073A3.592,3.592,0,0,1,29.68,8.187l-5.3,11.046a3.724,3.724,0,0,1-4.966,1.54l-.741-.337a2.924,2.924,0,0,0-3.044,1.555,2.836,2.836,0,0,0,.029,2.589l1.577.726a3.592,3.592,0,0,1,1.966,4.731l-5.3,11.046a3.725,3.725,0,0,1-4.966,1.54L2.278,39.55A3.6,3.6,0,0,1,.312,34.819Z" fill="#37485c"/>
            <g id="Group_2758" data-name="Group 2758" transform="translate(12.183 1.863)">
              <path id="Path_731" data-name="Path 731" d="M2.758,1.586A3.072,3.072,0,0,1,6.858.317l5.5,2.53a2.965,2.965,0,0,1,1.621,3.9l-2.765,5.773L0,7.358Z" transform="translate(1.867)" fill="#d2e3f2"/>
              <path id="Path_732" data-name="Path 732" d="M.261,3.337,1.86,0,13.074,5.164,11.476,8.5a3.072,3.072,0,0,1-4.1,1.269l-5.5-2.531A2.96,2.96,0,0,1,.261,3.337Z" transform="translate(0 7.358)" fill="#b8d9eb"/>
            </g>
            <g id="Group_2759" data-name="Group 2759" transform="translate(1.713 23.699)">
              <path id="Path_733" data-name="Path 733" d="M3.381,1.585A3.073,3.073,0,0,1,7.481.316l5.5,2.531a2.965,2.965,0,0,1,1.621,3.9L11.215,13.82,0,8.656Z" transform="translate(1.247)" fill="#d2e3f2"/>
              <path id="Path_734" data-name="Path 734" d="M.256,2.039,1.232,0,12.447,5.164,11.471,7.2a3.072,3.072,0,0,1-4.1,1.269l-5.5-2.53A2.967,2.967,0,0,1,.256,2.039Z" transform="translate(0 8.656)" fill="#b8d9eb"/>
            </g>
          </g>
        </g>
      </g>
    </g>
  </g>
  <g id="Group_3944" data-name="Group 3944" transform="translate(268.193 138.499) rotate(30)">
    <g id="Group_3943" data-name="Group 3943" transform="translate(1.395 0.216)">
      <path id="Path_8278" data-name="Path 8278" d="M17.8,20.322a4.15,4.15,0,0,0,2.24-.648,1.541,1.541,0,0,0,.039-.432,2.294,2.294,0,0,0-4.578,0,2.931,2.931,0,0,0,.039.413A4.233,4.233,0,0,0,17.8,20.322Z" transform="translate(-13.85 -13.976)" fill="#004e8c"/>
      <ellipse id="Ellipse_202" data-name="Ellipse 202" cx="1.375" cy="1.375" rx="1.375" ry="1.375" transform="translate(2.574)" fill="#004e8c"/>
      <path id="Path_8279" data-name="Path 8279" d="M9.465,18.216A1.9,1.9,0,0,0,8.581,18a1.824,1.824,0,0,0-1.081.354,4.428,4.428,0,0,0,1.2,1.729v-.138A2.267,2.267,0,0,1,9.465,18.216Z" transform="translate(-7.421 -14.699)" fill="#004e8c"/>
      <ellipse id="Ellipse_203" data-name="Ellipse 203" cx="1.159" cy="1.159" rx="1.159" ry="1.159" transform="translate(0 0.786)" fill="#004e8c"/>
      <path id="Path_8280" data-name="Path 8280" d="M38.8,17.973a1.828,1.828,0,0,0-1.12-.373,1.9,1.9,0,0,0-.884.216,2.256,2.256,0,0,1,.766,1.709.737.737,0,0,1-.02.216A3.958,3.958,0,0,0,38.8,17.973Z" transform="translate(-30.965 -14.378)" fill="#004e8c"/>
      <ellipse id="Ellipse_204" data-name="Ellipse 204" cx="1.159" cy="1.159" rx="1.159" ry="1.159" transform="translate(5.56 0.727)" fill="#004e8c"/>
    </g>
    <path id="Path_8281" data-name="Path 8281" d="M12.889,8.8l-1.65-1.65a.273.273,0,0,0-.373,0l-.1.1-1.3-1.3A5.336,5.336,0,0,0,10.118.1L9.431.277a4.608,4.608,0,0,1,.55,2.967A4.669,4.669,0,0,1,5.914,7.173,4.709,4.709,0,0,1,.688,2.517V2.4L0,2.576A5.35,5.35,0,0,0,5.344,7.861,5.383,5.383,0,0,0,9,6.426l1.3,1.3-.1.1a.273.273,0,0,0,0,.373l1.67,1.67a.273.273,0,0,0,.373,0l.668-.668A.324.324,0,0,0,12.889,8.8Z" transform="translate(0 -0.1)" fill="#004e8c"/>
  </g>
</svg>
